<svg width="165" height="46" viewBox="0 0 165 46" fill="none" xmlns="http://www.w3.org/2000/svg">
<path d="M59.0968 37.9063H60.4892V40.5841C60.1312 40.8562 59.7189 41.0631 59.2487 41.2082C58.7785 41.3533 58.3048 41.4259 57.8274 41.4259C57.1438 41.4259 56.529 41.2808 55.9829 40.9869C55.4368 40.693 55.01 40.2902 54.699 39.7713C54.3879 39.2525 54.2324 38.6647 54.2324 38.0115C54.2324 37.3584 54.3879 36.7706 54.699 36.2517C55.01 35.7329 55.4404 35.3265 55.9901 35.0362C56.5398 34.7423 57.1619 34.5972 57.8527 34.5972C58.4277 34.5972 58.9521 34.6951 59.4223 34.8911C59.8925 35.087 60.2867 35.37 60.6086 35.7401L59.6321 36.6472C59.1619 36.1501 58.5941 35.9034 57.9286 35.9034C57.5091 35.9034 57.1366 35.9905 56.8111 36.1683C56.4856 36.3461 56.2324 36.5928 56.048 36.9121C55.8671 37.2314 55.7767 37.6015 55.7767 38.0152C55.7767 38.4288 55.8671 38.788 56.048 39.111C56.2288 39.4303 56.482 39.6806 56.8039 39.862C57.1257 40.0435 57.4946 40.1306 57.9069 40.1306C58.3445 40.1306 58.7388 40.0362 59.0932 39.8475V37.9136L59.0968 37.9063Z" fill="white"/>
<path d="M71.1682 41.3133L69.8988 39.4736H68.4992V41.3133H66.9766V34.7095H69.8265C70.4088 34.7095 70.9151 34.8074 71.3455 35.0034C71.7758 35.1993 72.105 35.4751 72.3364 35.8343C72.5679 36.1935 72.6836 36.618 72.6836 37.1079C72.6836 37.5977 72.5679 38.0222 72.3328 38.3778C72.0977 38.7334 71.765 39.0056 71.331 39.1942L72.8066 41.3169H71.1719L71.1682 41.3133ZM70.7813 36.2516C70.5426 36.052 70.1954 35.954 69.7361 35.954H68.4955V38.2545H69.7361C70.1918 38.2545 70.5426 38.1529 70.7813 37.9533C71.02 37.7537 71.1393 37.4707 71.1393 37.1042C71.1393 36.7378 71.02 36.4475 70.7813 36.2516Z" fill="white"/>
<path d="M80.3009 40.9832C79.7512 40.6893 79.3244 40.2793 79.0134 39.7605C78.7024 39.2416 78.5469 38.6574 78.5469 38.0115C78.5469 37.3657 78.7024 36.7815 79.0134 36.2626C79.3244 35.7438 79.7512 35.3374 80.3009 35.0398C80.8507 34.7459 81.4655 34.5972 82.149 34.5972C82.8326 34.5972 83.4474 34.7459 83.9935 35.0398C84.5396 35.3337 84.9664 35.7438 85.281 36.2626C85.5957 36.7815 85.7512 37.3657 85.7512 38.0115C85.7512 38.6574 85.5957 39.2416 85.281 39.7605C84.9664 40.2793 84.5396 40.6857 83.9935 40.9832C83.4474 41.2771 82.8326 41.4259 82.149 41.4259C81.4655 41.4259 80.8507 41.2771 80.3009 40.9832ZM83.2015 39.8548C83.5161 39.677 83.7621 39.4266 83.9393 39.1037C84.1165 38.7844 84.2069 38.4179 84.2069 38.0079C84.2069 37.5979 84.1165 37.2351 83.9393 36.9121C83.7621 36.5928 83.5161 36.3425 83.2015 36.161C82.8868 35.9832 82.536 35.8925 82.149 35.8925C81.7621 35.8925 81.4076 35.9832 81.0966 36.161C80.782 36.3388 80.536 36.5892 80.3588 36.9121C80.1816 37.2314 80.0912 37.5979 80.0912 38.0079C80.0912 38.4179 80.1816 38.7808 80.3588 39.1037C80.536 39.423 80.782 39.6734 81.0966 39.8548C81.4112 40.0326 81.7621 40.1233 82.149 40.1233C82.536 40.1233 82.8868 40.0326 83.2015 39.8548Z" fill="white"/>
<path d="M92.7028 40.642C92.1784 40.1195 91.918 39.3757 91.918 38.4069V34.7095H93.4406V38.3488C93.4406 39.5317 93.9288 40.1231 94.9089 40.1231C95.3863 40.1231 95.748 39.9816 96.0012 39.695C96.2507 39.4083 96.3773 38.962 96.3773 38.3524V34.7131H97.8818V38.4105C97.8818 39.3793 97.6214 40.1231 97.097 40.6456C96.5726 41.1681 95.842 41.4294 94.9017 41.4294C93.9614 41.4294 93.2308 41.1681 92.7064 40.6456L92.7028 40.642Z" fill="white"/>
<path d="M108.826 35.0037C109.256 35.1996 109.585 35.4754 109.817 35.8346C110.048 36.1938 110.164 36.6183 110.164 37.1082C110.164 37.598 110.048 38.0153 109.817 38.3781C109.585 38.741 109.253 39.0167 108.826 39.209C108.396 39.4013 107.889 39.4957 107.307 39.4957H105.98V41.3172H104.457V34.7134H107.307C107.889 34.7134 108.396 34.8113 108.826 35.0073V35.0037ZM108.265 37.95C108.504 37.7504 108.623 37.471 108.623 37.1045C108.623 36.7381 108.504 36.4478 108.265 36.2518C108.027 36.0523 107.679 35.9543 107.22 35.9543H105.98V38.2475H107.22C107.676 38.2475 108.027 38.1495 108.265 37.95Z" fill="white"/>
<path d="M8.10157 19.5464L6.38005 23.915H0.199219L10.3945 0.203125H16.5717L26.5319 23.915H20.116L18.4271 19.5464H8.09434H8.10157ZM13.2987 6.19732L9.85564 14.9709H16.6766L13.2987 6.19732Z" fill="white"/>
<path d="M81.4651 19.5464L79.7436 23.915H73.5664L83.7617 0.203125H89.9389L99.8991 23.915H93.4832L91.7943 19.5464H81.4615H81.4651ZM86.6659 6.19732L83.2228 14.9709H90.0438L86.6659 6.19732Z" fill="white"/>
<path d="M123.527 3.99492L120.048 8.12772C118.496 6.23005 116.2 5.04354 114.106 5.04354C110.359 5.04354 107.52 8.02613 107.52 11.9195C107.52 15.8128 110.355 18.897 114.106 18.897C116.098 18.897 118.395 17.8121 120.048 16.1176L123.559 19.844C121.028 22.4528 117.277 24.18 113.802 24.18C106.677 24.18 101.375 18.9296 101.375 11.9848C101.375 5.03991 106.814 0 114.008 0C117.52 0 121.165 1.5566 123.531 3.99492H123.527Z" fill="white"/>
<path d="M72.4554 0.166992V6.2011H65.3306V23.9152H59.327V6.2011H52.2637V0.166992H72.4554Z" fill="white"/>
<path d="M47.8343 0.166992V6.2011H40.7095V23.9152H34.695V6.2011H27.6426V0.166992H47.8343Z" fill="white"/>
<path d="M140.586 23.904H134.578V15.0724H125.775V9.04914H134.578V0.213867H140.586V23.904Z" fill="white"/>
<path d="M164.196 9.04914L164.2 15.0724H155.397V23.904H149.39V15.0724H142.088V9.04914H149.39V0.213867H155.397V9.04914H164.196Z" fill="white"/>
<path d="M164.299 30.9165V31.2798H0.0996094V30.9165H164.299Z" fill="white" stroke="white" stroke-width="0.2"/>
<path d="M164.299 44.7373V45.1006H0.0996094V44.7373H164.299Z" fill="white" stroke="white" stroke-width="0.2"/>
</svg>
