<svg width="178" height="56" viewBox="0 0 178 56" fill="none" xmlns="http://www.w3.org/2000/svg">
<path d="M48.658 21.8597H52.4018V24.2338C52.8075 23.4021 53.4316 22.7575 54.2739 22.3009C55.1156 21.8444 56.0848 21.6162 57.1806 21.6162C58.2965 21.6162 59.291 21.8702 60.1635 22.3771C61.0359 22.8846 61.7054 23.5998 62.1726 24.5229C62.6391 25.4466 62.8725 26.5067 62.8725 27.7038V37.2004H59.1592V28.4952C59.1592 27.4403 58.8595 26.5827 58.2612 25.9231C57.6624 25.2639 56.8864 24.9339 55.9326 24.9339C55.263 24.9339 54.6591 25.1014 54.1217 25.4361C53.5838 25.7709 53.1628 26.2328 52.8584 26.8211C52.554 27.4099 52.4018 28.0795 52.4018 28.83V37.2004H48.658V21.8597Z" fill="#FAF5F0"/>
<path d="M75.1604 33.624C75.7996 33.2283 76.2966 32.6758 76.6519 31.9653C77.0067 31.255 77.1845 30.4434 77.1845 29.5302C77.1845 28.6171 77.0067 27.8056 76.6519 27.095C76.2966 26.3851 75.7945 25.8319 75.1451 25.4362C74.4956 25.0405 73.7649 24.8426 72.9538 24.8426C72.1215 24.8426 71.3808 25.0405 70.7318 25.4362C70.0819 25.8319 69.5798 26.3851 69.225 27.095C68.8697 27.8056 68.6923 28.6171 68.6923 29.5302C68.6923 30.4434 68.8697 31.255 69.225 31.9653C69.5798 32.6758 70.0819 33.2283 70.7318 33.624C71.3808 34.0197 72.1215 34.2177 72.9538 34.2177C73.7854 34.2177 74.5212 34.0197 75.1604 33.624ZM68.8142 36.4092C67.5965 35.7196 66.6426 34.7759 65.9529 33.5785C65.2629 32.3812 64.918 31.0322 64.918 29.5302C64.918 28.0286 65.2629 26.6794 65.9529 25.4818C66.6426 24.2847 67.5965 23.3411 68.8142 22.6512C70.0316 21.9615 71.4013 21.6162 72.9232 21.6162C74.4652 21.6162 75.8454 21.9615 77.0629 22.6512C78.2803 23.3411 79.2338 24.2847 79.9239 25.4818C80.6137 26.6794 80.959 28.0286 80.959 29.5302C80.959 31.0322 80.6137 32.3812 79.9239 33.5785C79.2338 34.7759 78.2803 35.7196 77.0629 36.4092C75.8454 37.0993 74.4755 37.4441 72.9538 37.4441C71.4112 37.4441 70.0316 37.0993 68.8142 36.4092Z" fill="#FAF5F0"/>
<path d="M98.6977 24.9947C99.2861 24.6095 100.006 24.4164 100.859 24.4164C101.955 24.4164 102.822 24.7259 103.461 25.3448C104.1 25.9639 104.461 26.7706 104.542 27.7646H97.0204C97.098 27.3726 97.2042 27.0111 97.3431 26.6841C97.6576 25.9434 98.109 25.3804 98.6977 24.9947ZM104.724 32.0868C104.521 32.8173 104.11 33.3757 103.492 33.7608C102.872 34.1466 102.086 34.3392 101.133 34.3392C100.28 34.3392 99.5295 34.1314 98.8805 33.7153C98.2308 33.2997 97.7338 32.726 97.3888 31.9956C97.154 31.4988 97.0013 30.9399 96.9264 30.3214H108.195C108.255 29.9157 108.286 29.4796 108.286 29.0125C108.286 27.7341 108.007 26.5319 107.449 25.4057C106.89 24.2795 106.059 23.3662 104.953 22.6663C103.846 21.966 102.482 21.6161 100.859 21.6161C99.2555 21.6161 97.8858 21.9813 96.7496 22.7119C95.6131 23.4424 94.7607 24.4064 94.1928 25.6035C93.6247 26.801 93.3406 28.0994 93.3406 29.4995C93.3406 30.8593 93.6498 32.1476 94.269 33.3652C94.8878 34.5827 95.7804 35.5672 96.9476 36.3178C98.114 37.0686 99.5092 37.4438 101.133 37.4438C103.04 37.4438 104.648 36.957 105.957 35.983C107.266 35.0088 108.073 33.7105 108.377 32.0868H104.724Z" fill="#FAF5F0"/>
<path d="M137.755 33.624C138.395 33.2283 138.892 32.6758 139.247 31.9653C139.602 31.255 139.78 30.4434 139.78 29.5302C139.78 28.6171 139.602 27.8056 139.247 27.095C138.892 26.3851 138.389 25.8319 137.74 25.4362C137.091 25.0405 136.36 24.8426 135.549 24.8426C134.716 24.8426 133.976 25.0405 133.327 25.4362C132.677 25.8319 132.175 26.3851 131.82 27.095C131.465 27.8056 131.287 28.6171 131.287 29.5302C131.287 30.4434 131.465 31.255 131.82 31.9653C132.175 32.6758 132.677 33.2283 133.327 33.624C133.976 34.0197 134.716 34.2177 135.549 34.2177C136.381 34.2177 137.116 34.0197 137.755 33.624ZM131.409 36.4092C130.192 35.7196 129.237 34.7759 128.548 33.5785C127.858 32.3812 127.513 31.0322 127.513 29.5302C127.513 28.0286 127.858 26.6794 128.548 25.4818C129.237 24.2847 130.192 23.3411 131.409 22.6512C132.627 21.9615 133.996 21.6162 135.518 21.6162C137.06 21.6162 138.44 21.9615 139.658 22.6512C140.875 23.3411 141.829 24.2847 142.519 25.4818C143.209 26.6794 143.554 28.0286 143.554 29.5302C143.554 31.0322 143.209 32.3812 142.519 33.5785C141.829 34.7759 140.875 35.7196 139.658 36.4092C138.44 37.0993 137.07 37.4441 135.549 37.4441C134.006 37.4441 132.627 37.0993 131.409 36.4092Z" fill="#FAF5F0"/>
<path d="M155.178 33.624C155.817 33.2283 156.314 32.6758 156.669 31.9653C157.024 31.255 157.202 30.4434 157.202 29.5302C157.202 28.6171 157.024 27.8056 156.669 27.095C156.314 26.3851 155.812 25.8319 155.162 25.4362C154.513 25.0405 153.782 24.8426 152.971 24.8426C152.139 24.8426 151.398 25.0405 150.749 25.4362C150.099 25.8319 149.597 26.3851 149.242 27.095C148.887 27.8056 148.71 28.6171 148.71 29.5302C148.71 30.4434 148.887 31.255 149.242 31.9653C149.597 32.6758 150.099 33.2283 150.749 33.624C151.398 34.0197 152.139 34.2177 152.971 34.2177C153.803 34.2177 154.539 34.0197 155.178 33.624ZM148.832 36.4092C147.614 35.7196 146.66 34.7759 145.97 33.5785C145.28 32.3812 144.935 31.0322 144.935 29.5302C144.935 28.0286 145.28 26.6794 145.97 25.4818C146.66 24.2847 147.614 23.3411 148.832 22.6512C150.049 21.9615 151.419 21.6162 152.94 21.6162C154.483 21.6162 155.863 21.9615 157.08 22.6512C158.298 23.3411 159.251 24.2847 159.941 25.4818C160.631 26.6794 160.976 28.0286 160.976 29.5302C160.976 31.0322 160.631 32.3812 159.941 33.5785C159.251 34.7759 158.298 35.7196 157.08 36.4092C155.863 37.0993 154.493 37.4441 152.971 37.4441C151.429 37.4441 150.049 37.0993 148.832 36.4092Z" fill="#FAF5F0"/>
<path d="M87.9228 18.3711H84.1789V21.8597H81.1655V24.9948H84.1789V31.8434C84.1789 32.9596 84.4071 33.9185 84.8637 34.7197C85.3202 35.5215 85.9642 36.1351 86.7966 36.5612C87.6284 36.9874 88.6024 37.2004 89.7186 37.2004H92.1843V34.0653H90.1449C89.4342 34.0653 88.8863 33.8628 88.5011 33.4566C88.1154 33.0509 87.9228 32.4626 87.9228 31.6912V24.9948H92.1843V21.8597H87.9228V18.3711Z" fill="#FAF5F0"/>
<path d="M121.794 31.9957C121.449 32.7061 120.967 33.2541 120.348 33.6393C119.729 34.0251 119.004 34.2177 118.172 34.2177C116.934 34.2177 115.939 33.7915 115.189 32.9393C114.438 32.087 114.063 30.9508 114.063 29.5302C114.063 28.597 114.235 27.7751 114.58 27.0646C114.925 26.3547 115.407 25.8066 116.026 25.4211C116.645 25.0357 117.37 24.8428 118.202 24.8428C119.44 24.8428 120.434 25.2689 121.185 26.1212C121.936 26.9734 122.311 28.1099 122.311 29.5302C122.311 30.4636 122.139 31.2856 121.794 31.9957ZM122.707 22.6206C121.631 21.951 120.363 21.6162 118.902 21.6162C117.948 21.6162 117.061 21.8093 116.239 22.1947C115.417 22.5802 114.773 23.0877 114.306 23.7164V18.3712H110.562V37.2006H114.306V35.283C114.752 35.9327 115.397 36.4549 116.239 36.8505C117.081 37.2462 117.989 37.4441 118.963 37.4441C120.404 37.4441 121.657 37.1093 122.722 36.4396C123.788 35.77 124.604 34.8369 125.172 33.6393C125.74 32.4423 126.025 31.0724 126.025 29.5302C126.025 27.9884 125.74 26.6185 125.172 25.4211C124.604 24.2239 123.782 23.2904 122.707 22.6206Z" fill="#FAF5F0"/>
<path d="M173.495 37.2004H178L171.237 27.8869L177.483 21.8597H172.734L166.86 27.4872V18.3711H163.116V37.2004H166.86V32.1114L168.697 30.3382L173.495 37.2004Z" fill="#FAF5F0"/>
<path d="M24.789 43.606C22.7654 43.606 20.941 42.387 20.1666 40.5173L11.2197 18.9179C9.85519 15.6235 12.2765 11.9999 15.8422 11.9999C17.8659 11.9999 19.6902 13.2189 20.4647 15.0884L29.4115 36.688C30.7761 39.9822 28.3547 43.606 24.789 43.606Z" fill="#FF283C"/>
<path d="M4.06635 27.8029L0.386019 36.688C-0.978529 39.9824 1.44263 43.606 5.0085 43.606C7.03219 43.606 8.85651 42.387 9.63099 40.5173L14.8975 27.8029H4.06635Z" fill="#FF283C"/>
<path d="M36.564 27.803L40.2444 18.9179C41.6089 15.6235 39.1876 12 35.6219 12C33.5982 12 31.7739 13.2189 30.9994 15.0886L25.7329 27.803H36.564Z" fill="#FF283C"/>
</svg>
