<svg width="106" height="16" viewBox="0 0 106 16" fill="none" xmlns="http://www.w3.org/2000/svg">
<path d="M105.339 13.6591C103.781 15.1136 101.663 16 99.277 16C94.5297 16 90.7075 12.4091 90.7075 8C90.7075 3.59091 94.554 0 99.277 0C101.663 0 103.781 0.886364 105.339 2.34091L103.075 4.45455C102.101 3.56818 100.738 2.97727 99.277 2.97727C96.3069 2.97727 93.8967 5.22727 93.8967 8C93.8967 10.7727 96.3069 13.0227 99.277 13.0227C100.738 13.0227 102.101 12.4545 103.075 11.5455L105.339 13.6591ZM79.0219 3.25H74.932V0.386364H86.155V3.25H82.065V12.7727H86.155V15.6364H74.932V12.7727H79.0219V3.25ZM68.9431 0.386364V15.6364H66.4112L57.3062 5.36364V15.6364H54.2631V0.386364H56.7949L65.9243 10.6591V0.386364H68.9431ZM49.4914 13.6591C47.9333 15.1136 45.8153 16 43.4295 16C38.6823 16 34.8601 12.4091 34.8601 8C34.8601 3.59091 38.7066 0 43.4295 0C45.8153 0 47.9333 0.886364 49.4914 2.34091L47.2273 4.45455C46.2535 3.56818 44.8902 2.97727 43.4295 2.97727C40.4594 2.97727 38.0493 5.22727 38.0493 8C38.0493 10.7727 40.4594 13.0227 43.4295 13.0227C44.8902 13.0227 46.2535 12.4545 47.2273 11.5455L49.4914 13.6591ZM23.5883 3.25H19.4984V0.386364H30.7214V3.25H26.6315V12.7727H30.7214V15.6364H19.4984V12.7727H23.5883V3.25ZM10.3934 3.25H3.40634V7.04545H10.3934C11.5376 7.04545 12.4383 6.20455 12.4383 5.13636C12.4383 4.06818 11.5376 3.25 10.3934 3.25ZM10.3934 0.386364C13.1687 0.386364 15.5058 2.5 15.5058 5.15909C15.5058 7.75 13.2417 9.93182 10.3934 9.93182H3.40634V15.6591H0.338867V0.386364H10.3934Z" fill="white"/>
</svg>
